Gait_normal_01_analogdata.mot
version=1
nRows=43
nColumns=19
inDegrees=yes
endheader
time	1_ground_force_vx	1_ground_force_vy	1_ground_force_vz	1_ground_force_px	1_ground_force_py	1_ground_force_pz	1_ground_torque_x	1_ground_torque_y	1_ground_torque_z	2_ground_force_vx	2_ground_force_vy	2_ground_force_vz	2_ground_force_px	2_ground_force_py	2_ground_force_pz	2_ground_torque_x	2_ground_torque_y	2_ground_torque_z
0.225000	28.269254	321.761475	-83.281658	-0.163724	0.000000	-0.409754	0.160571	1.827627	-0.473045	0.000000	0.000000	-0.000000	-0.200000	0.000000	0.302000	0.000000	0.000000	-0.000000
0.226000	25.774852	336.458221	-86.024204	-0.165547	0.000000	-0.405665	0.106768	1.393720	-0.356340	0.000000	0.000000	-0.000000	-0.200000	0.000000	0.302000	0.000000	0.000000	-0.000000
0.227000	26.754797	329.109863	-87.439708	-0.163809	0.000000	-0.412248	0.139460	1.715498	-0.455783	0.000000	0.000000	-0.000000	-0.200000	0.000000	0.302000	0.000000	0.000000	-0.000000
0.228000	27.734742	340.307373	-91.155414	-0.164208	0.000000	-0.409322	0.153954	1.889029	-0.505999	0.000000	0.000000	-0.000000	-0.200000	0.000000	0.302000	0.000000	0.000000	-0.000000
0.229000	28.269255	348.705505	-91.420825	-0.163915	0.000000	-0.409509	0.134164	1.654934	-0.433877	0.000000	0.000000	-0.000000	-0.200000	0.000000	0.302000	0.000000	0.000000	-0.000000
0.230000	27.823827	352.554657	-92.836330	-0.163362	0.000000	-0.410243	0.142403	1.804388	-0.475140	0.000000	0.000000	-0.000000	-0.200000	0.000000	0.302000	0.000000	0.000000	-0.000000
0.231000	28.625600	366.901489	-92.924800	-0.163027	0.000000	-0.406462	0.177349	2.273128	-0.575713	0.000000	0.000000	-0.000000	-0.200000	0.000000	0.302000	0.000000	0.000000	-0.000000
0.232000	30.050973	374.249847	-94.340305	-0.162909	0.000000	-0.405535	0.109384	1.362254	-0.343395	0.000000	0.000000	-0.000000	-0.200000	0.000000	0.302000	0.000000	0.000000	-0.000000
0.233000	28.536513	380.548462	-93.544086	-0.164139	0.000000	-0.406951	0.144664	1.929162	-0.474215	0.000000	0.000000	-0.000000	-0.200000	0.000000	0.302000	0.000000	0.000000	-0.000000
0.234000	29.427371	386.497162	-93.809490	-0.163121	0.000000	-0.406791	0.167116	2.194896	-0.532739	0.000000	0.000000	-0.000000	-0.200000	0.000000	0.302000	0.000000	0.000000	-0.000000
0.235000	30.229144	403.993286	-93.897960	-0.163471	0.000000	-0.402616	0.169003	2.258618	-0.524958	0.000000	0.000000	-0.000000	-0.200000	0.000000	0.302000	0.000000	0.000000	-0.000000
0.236000	28.803771	408.542267	-93.455615	-0.162468	0.000000	-0.403856	0.159145	2.257250	-0.516355	0.000000	0.000000	-0.000000	-0.200000	0.000000	0.302000	0.000000	0.000000	-0.000000
0.237000	30.407315	416.940399	-93.278674	-0.162772	0.000000	-0.404323	0.193977	2.659777	-0.595050	0.000000	0.000000	-0.000000	-0.200000	0.000000	0.302000	0.000000	0.000000	-0.000000
0.238000	29.961887	425.688477	-94.871120	-0.163078	0.000000	-0.402426	0.180435	2.563560	-0.571328	0.000000	0.000000	-0.000000	-0.200000	0.000000	0.302000	0.000000	0.000000	-0.000000
0.239000	30.050973	428.487854	-92.482455	-0.162156	0.000000	-0.402798	0.193209	2.754910	-0.594605	0.000000	0.000000	-0.000000	-0.200000	0.000000	0.302000	0.000000	0.000000	-0.000000
0.240000	28.803771	437.235931	-92.305515	-0.162201	0.000000	-0.402425	0.191501	2.906957	-0.613692	0.000000	0.000000	-0.000000	-0.200000	0.000000	0.302000	0.000000	0.000000	-0.000000
0.241000	28.625600	452.282593	-92.482456	-0.162351	0.000000	-0.399738	0.186691	2.949700	-0.603153	0.000000	0.000000	-0.000000	-0.200000	0.000000	0.302000	0.000000	0.000000	-0.000000
0.242000	26.665711	441.784912	-91.951641	-0.160781	0.000000	-0.404520	0.176582	2.925522	-0.608908	0.000000	0.000000	-0.000000	-0.200000	0.000000	0.302000	0.000000	0.000000	-0.000000
0.243000	25.685767	457.181519	-93.455616	-0.162652	0.000000	-0.402201	0.178563	3.178247	-0.649687	0.000000	0.000000	-0.000000	-0.200000	0.000000	0.302000	0.000000	0.000000	-0.000000
0.244000	24.260394	467.679169	-93.986431	-0.160121	0.000000	-0.401754	0.140477	2.708039	-0.544217	0.000000	0.000000	-0.000000	-0.200000	0.000000	0.302000	0.000000	0.000000	-0.000000
0.245000	21.498735	472.928009	-95.048062	-0.160753	0.000000	-0.398923	0.119405	2.626673	-0.527903	0.000000	0.000000	-0.000000	-0.200000	0.000000	0.302000	0.000000	0.000000	-0.000000
0.246000	19.806104	475.027557	-94.782658	-0.160027	0.000000	-0.401038	0.100292	2.405397	-0.479951	0.000000	0.000000	-0.000000	-0.200000	0.000000	0.302000	0.000000	0.000000	-0.000000
0.247000	18.202560	482.725861	-96.286634	-0.159286	0.000000	-0.399824	0.092184	2.444684	-0.487628	0.000000	0.000000	-0.000000	-0.200000	0.000000	0.302000	0.000000	0.000000	-0.000000
0.248000	15.619072	491.473907	-97.348264	-0.161002	0.000000	-0.398651	0.070474	2.217539	-0.439237	0.000000	0.000000	-0.000000	-0.200000	0.000000	0.302000	0.000000	0.000000	-0.000000
0.249000	14.104614	490.074219	-97.702139	-0.159859	0.000000	-0.399043	0.062521	2.172345	-0.433083	0.000000	0.000000	-0.000000	-0.200000	0.000000	0.302000	0.000000	0.000000	-0.000000
0.250000	11.253868	500.571899	-98.852240	-0.160126	0.000000	-0.397552	0.044609	1.984207	-0.391838	0.000000	0.000000	-0.000000	-0.200000	0.000000	0.302000	0.000000	0.000000	-0.000000
0.251000	9.293980	502.321503	-99.117651	-0.159363	0.000000	-0.397597	0.034697	1.875285	-0.370030	0.000000	0.000000	-0.000000	-0.200000	0.000000	0.302000	0.000000	0.000000	-0.000000
0.252000	8.403122	505.820740	-99.471526	-0.160064	0.000000	-0.397381	0.031840	1.916591	-0.376905	0.000000	0.000000	-0.000000	-0.200000	0.000000	0.302000	0.000000	0.000000	-0.000000
0.253000	6.443235	509.669891	-102.214072	-0.159876	0.000000	-0.396397	0.021054	1.665382	-0.333992	0.000000	0.000000	-0.000000	-0.200000	0.000000	0.302000	0.000000	0.000000	-0.000000
0.254000	5.374204	508.270203	-99.294585	-0.158747	0.000000	-0.397480	0.018411	1.741269	-0.340171	0.000000	0.000000	-0.000000	-0.200000	0.000000	0.302000	0.000000	0.000000	-0.000000
0.255000	0.919914	510.369720	-99.825401	-0.159099	0.000000	-0.396481	0.002614	1.450141	-0.283639	0.000000	0.000000	-0.000000	-0.200000	0.000000	0.302000	0.000000	0.000000	-0.000000
0.256000	-0.149115	508.270203	-101.329384	-0.158075	0.000000	-0.397246	-0.000358	1.218991	-0.243020	0.000000	0.000000	-0.000000	-0.200000	0.000000	0.302000	0.000000	0.000000	-0.000000
0.257000	-2.376261	514.918701	-100.179284	-0.158114	0.000000	-0.396089	-0.004965	1.075962	-0.209332	0.000000	0.000000	-0.000000	-0.200000	0.000000	0.302000	0.000000	0.000000	-0.000000
0.258000	-3.801633	514.918701	-101.506318	-0.158562	0.000000	-0.396542	-0.008776	1.188691	-0.234327	0.000000	0.000000	-0.000000	-0.200000	0.000000	0.302000	0.000000	0.000000	-0.000000
0.259000	-6.474207	518.417969	-101.683259	-0.156806	0.000000	-0.396596	-0.007664	0.613662	-0.120365	0.000000	0.000000	-0.000000	-0.200000	0.000000	0.302000	0.000000	0.000000	-0.000000
0.260000	-9.503125	517.718079	-101.860200	-0.157288	0.000000	-0.395134	-0.008968	0.488558	-0.096123	0.000000	0.000000	-0.000000	-0.200000	0.000000	0.302000	0.000000	0.000000	-0.000000
0.261000	-11.017584	520.867432	-100.621629	-0.157661	0.000000	-0.395261	-0.007984	0.377470	-0.072920	0.000000	0.000000	-0.000000	-0.200000	0.000000	0.302000	0.000000	0.000000	-0.000000
0.262000	-13.066557	524.716553	-102.302546	-0.156839	0.000000	-0.394839	-0.015228	0.611531	-0.119229	0.000000	0.000000	-0.000000	-0.200000	0.000000	0.302000	0.000000	0.000000	-0.000000
0.263000	-14.759188	525.416382	-101.063975	-0.156444	0.000000	-0.394789	-0.009399	0.334582	-0.064357	0.000000	0.000000	-0.000000	-0.200000	0.000000	0.302000	0.000000	0.000000	-0.000000
0.264000	-17.520847	526.466187	-101.329387	-0.157082	0.000000	-0.393906	-0.011541	0.346782	-0.066745	0.000000	0.000000	-0.000000	-0.200000	0.000000	0.302000	0.000000	0.000000	-0.000000
0.265000	-20.995193	529.965393	-101.771732	-0.156966	0.000000	-0.393100	-0.004702	0.118682	-0.022791	0.000000	0.000000	-0.000000	-0.200000	0.000000	0.302000	0.000000	0.000000	-0.000000
0.266000	-21.173366	532.064941	-100.975505	-0.156285	0.000000	-0.393098	-0.015331	0.385248	-0.073113	0.000000	0.000000	-0.000000	-0.200000	0.000000	0.302000	0.000000	0.000000	-0.000000
0.267000	-22.865995	534.514404	-100.267757	-0.156902	0.000000	-0.392087	-0.024285	0.567676	-0.106489	0.000000	0.000000	-0.000000	-0.200000	0.000000	0.302000	0.000000	0.000000	-0.000000
